HIERARCHY
ROOT Hips
{
 OFFSET 0.000000 0.000000 0.000000
 CHANNELS 6 Xposition Yposition Zposition Yrotation Xrotation Zrotation
 JOINT Chest
 {
  OFFSET 0.000000 9.585900 0.002600
  CHANNELS 3 Yrotation Xrotation Zrotation
  JOINT Chest2
  {
   OFFSET 0.000000 9.601200 -0.005300
   CHANNELS 3 Yrotation Xrotation Zrotation
   JOINT Chest3
   {
    OFFSET 0.000000 9.561800 0.000000
    CHANNELS 3 Yrotation Xrotation Zrotation
    JOINT Chest4
    {
     OFFSET 0.000000 9.552100 0.000000
     CHANNELS 3 Yrotation Xrotation Zrotation
     JOINT Neck
     {
      OFFSET 0.000000 14.453000 0.000000
      CHANNELS 3 Yrotation Xrotation Zrotation
      JOINT Head
      {
       OFFSET 0.000000 8.936500 -0.011300
       CHANNELS 3 Yrotation Xrotation Zrotation
       End Site
       {
        OFFSET 0.000000 17.073600 -0.006000
       }
      }
     }
     JOINT RightCollar
     {
      OFFSET -2.921100 9.558500 0.000000
      CHANNELS 3 Yrotation Xrotation Zrotation
      JOINT RightShoulder
      {
       OFFSET -13.519700 0.000000 0.000000
       CHANNELS 3 Yrotation Xrotation Zrotation
       JOINT RightElbow
       {
        OFFSET 0.000000 -29.696600 0.000000
        CHANNELS 3 Yrotation Xrotation Zrotation
        JOINT RightWrist
        {
         OFFSET 0.000000 -24.004700 0.000000
         CHANNELS 3 Yrotation Xrotation Zrotation
         End Site
         {
          OFFSET 0.000000 -17.728500 0.000000
         }
        }
       }
      }
     }
     JOINT LeftCollar
     {
      OFFSET 2.921100 9.558500 0.000000
      CHANNELS 3 Yrotation Xrotation Zrotation
      JOINT LeftShoulder
      {
       OFFSET 13.519700 0.000000 0.000000
       CHANNELS 3 Yrotation Xrotation Zrotation
       JOINT LeftElbow
       {
        OFFSET 0.000000 -29.696600 0.000000
        CHANNELS 3 Yrotation Xrotation Zrotation
        JOINT LeftWrist
        {
         OFFSET 0.000000 -24.004700 0.000000
         CHANNELS 3 Yrotation Xrotation Zrotation
         End Site
         {
          OFFSET 0.000000 -17.728500 0.000000
         }
        }
       }
      }
     }
    }
   }
  }
 }
 JOINT RightHip
 {
  OFFSET -7.771700 -0.012900 -0.001300
  CHANNELS 3 Yrotation Xrotation Zrotation
  JOINT RightKnee
  {
   OFFSET 0.000000 -40.869800 0.001200
   CHANNELS 3 Yrotation Xrotation Zrotation
   JOINT RightAnkle
   {
    OFFSET 0.000000 -39.717900 0.002100
    CHANNELS 3 Yrotation Xrotation Zrotation
    JOINT RightToe
    {
     OFFSET 0.000000 -4.965400 11.033500
     CHANNELS 3 Yrotation Xrotation Zrotation
     End Site
     {
      OFFSET 0.000000 -1.423100 5.872300
     }
    }
   }
  }
 }
 JOINT LeftHip
 {
  OFFSET 7.771700 -0.012900 -0.001300
  CHANNELS 3 Yrotation Xrotation Zrotation
  JOINT LeftKnee
  {
   OFFSET 0.000000 -40.869800 0.001200
   CHANNELS 3 Yrotation Xrotation Zrotation
   JOINT LeftAnkle
   {
    OFFSET 0.000000 -39.717900 0.002100
    CHANNELS 3 Yrotation Xrotation Zrotation
    JOINT LeftToe
    {
     OFFSET 0.000000 -4.965400 11.033500
     CHANNELS 3 Yrotation Xrotation Zrotation
     End Site
     {
      OFFSET 0.000000 -1.423100 5.872300
     }
    }
   }
  }
 }
}
MOTION
Frames: 15
Frame Time: 0.008333
-35.035889 57.909526 12.683824 179.131130 -50.314609 -3.592196 3.018549 22.635692 2.983278 1.551926 12.955635 1.565451 2.010037 16.187101 2.026637 1.551257 12.948078 1.571440 0.831442 16.072706 4.042466 0.111574 -5.930083 7.256902 2.430311 4.800692 0.596614 -3.991338 -14.600177 -9.656033 -52.685801 -35.992245 116.279971 -8.588905 -0.069175 -28.286955 -9.723829 1.375320 -1.650498 4.027235 -11.925002 13.130028 54.007196 -34.741621 -116.555442 14.199991 1.828249 16.195423 2.850870 -21.120351 -3.891353 -34.636211 73.232644 -38.811177 6.202007 -13.586219 11.662100 -0.013843 -0.025148 0.002830 -5.927650 -18.848570 5.440561 85.871845 83.050613 85.397200 0.542807 -21.939738 -16.953958 0.045474 0.018657 0.020861
-35.035582 57.910474 12.684810 179.135248 -50.319499 -3.600397 3.018892 22.640919 2.987366 1.552360 12.956187 1.565467 2.009466 16.195380 2.024733 1.551557 12.962192 1.564571 0.832441 16.061985 4.041044 0.110085 -5.918440 7.222232 2.440720 4.768397 0.595957 -3.980038 -14.595270 -9.656920 -52.674205 -36.039899 116.287799 -8.604484 -0.086986 -28.304721 -9.728257 1.349225 -1.639431 4.050031 -11.919546 13.121248 54.019580 -34.759567 -116.556038 14.166057 1.885550 16.152665 2.842193 -21.111996 -3.887822 -34.619704 73.229931 -38.795452 6.201647 -13.589288 11.659951 -0.017500 -0.027338 -0.000620 -5.932798 -18.843854 5.448335 85.872303 83.051759 85.395411 0.543348 -21.936428 -16.952923 0.045860 0.016870 0.020042
-35.035765 57.911512 12.685680 179.139525 -50.324551 -3.605255 3.016373 22.649117 2.985481 1.552445 12.959734 1.565144 2.010823 16.200801 2.024841 1.552980 12.961883 1.565238 0.830607 16.062241 4.032213 0.112215 -5.926584 7.225468 2.449130 4.750293 0.587590 -3.968627 -14.592220 -9.657349 -52.680701 -36.054394 116.288265 -8.558687 -0.031291 -28.310598 -9.745044 1.333420 -1.638356 4.093264 -11.907299 13.105791 54.023181 -34.783756 -116.560813 14.116581 1.953332 16.098122 2.839855 -21.105124 -3.889126 -34.621571 73.230790 -38.793666 6.203922 -13.593778 11.658274 -0.016034 -0.026440 -0.001603 -5.943998 -18.839716 5.452363 85.878302 83.054088 85.392265 0.550735 -21.930525 -16.951954 0.040582 0.014781 0.018395
-35.036097 57.911847 12.687075 179.139585 -50.323996 -3.605686 3.017333 22.651102 2.985079 1.552677 12.962176 1.565476 2.010214 16.200135 2.024272 1.552886 12.967833 1.561742 0.828627 16.062292 4.023913 0.113495 -5.924969 7.212157 2.456779 4.733666 0.582344 -3.931989 -14.590859 -9.673020 -52.708940 -36.059999 116.289461 -8.516604 0.020170 -28.316328 -9.751553 1.324044 -1.635545 4.105950 -11.900291 13.100116 54.034137 -34.800904 -116.563007 14.051324 2.026767 16.032150 2.840797 -21.106333 -3.890261 -34.617265 73.233995 -38.783142 6.192665 -13.594682 11.653572 -0.002209 -0.025161 -0.000341 -5.944123 -18.841075 5.452910 85.853557 83.059092 85.366471 0.556697 -21.927641 -16.950215 0.037563 0.015884 0.017548
-35.035838 57.911779 12.688767 179.131731 -50.320402 -3.603478 3.020668 22.653542 2.983472 1.554244 12.963534 1.564871 2.013125 16.196970 2.026043 1.552089 12.971591 1.557513 0.826497 16.062432 4.015622 0.114205 -5.923222 7.198682 2.465009 4.719067 0.578966 -3.860132 -14.596815 -9.704608 -52.743199 -36.109864 116.270666 -8.544425 0.000842 -28.315327 -9.754291 1.318216 -1.631293 4.116831 -11.892270 13.094610 54.037456 -34.825509 -116.556708 14.034342 2.053935 15.992573 2.844939 -21.111228 -3.886689 -34.610621 73.234011 -38.772754 6.185116 -13.593796 11.651918 -0.013642 -0.028203 -0.003393 -5.937560 -18.844930 5.456761 85.826392 83.063207 85.341391 0.562487 -21.926286 -16.949128 0.034473 0.017727 0.016760
-35.035323 57.912371 12.689861 179.127562 -50.321250 -3.605726 3.024749 22.657083 2.983448 1.558705 12.963866 1.565448 2.013517 16.199626 2.024453 1.549158 12.970641 1.560776 0.824253 16.062922 4.006427 0.106503 -5.914455 7.154660 2.475196 4.710443 0.574173 -3.836619 -14.598392 -9.713004 -52.749238 -36.130518 116.260487 -8.556241 -0.015370 -28.314917 -9.751899 1.313997 -1.627965 4.121815 -11.889394 13.093726 54.037749 -34.854101 -116.537297 14.028212 2.075510 15.940256 2.845903 -21.111376 -3.881896 -34.599234 73.233503 -38.756135 6.184493 -13.590306 11.647560 -0.013296 -0.029981 -0.004266 -5.933573 -18.843314 5.462788 85.809980 83.066198 85.325757 0.567923 -21.925797 -16.948437 0.029824 0.019274 0.016604
-35.035121 57.912643 12.691039 179.121361 -50.319696 -3.604897 3.027289 22.657230 2.984949 1.557363 12.964915 1.563937 2.010282 16.204897 2.021216 1.554556 12.967678 1.562010 0.822865 16.061352 3.998766 0.104583 -5.912946 7.135476 2.482067 4.705086 0.571338 -3.814187 -14.601153 -9.721266 -52.761811 -36.137139 116.254275 -8.530746 0.019843 -28.317413 -9.759261 1.311387 -1.627929 4.134854 -11.888229 13.094048 54.039536 -34.862693 -116.534112 13.951891 2.145994 15.855166 2.848447 -21.115134 -3.882729 -34.581068 73.236693 -38.732039 6.190628 -13.587954 11.643520 -0.018703 -0.031165 -0.007270 -5.927252 -18.844671 5.467575 85.798178 83.068307 85.316183 0.570264 -21.925546 -16.947746 0.031722 0.019556 0.016148
-35.035057 57.912931 12.691990 179.113624 -50.318392 -3.602603 3.032055 22.658740 2.987349 1.555794 12.963704 1.562194 2.012145 16.208986 2.022230 1.554600 12.968995 1.561788 0.823574 16.054981 3.995674 0.101430 -5.911346 7.118599 2.493437 4.695571 0.562909 -3.804443 -14.600156 -9.720636 -52.767707 -36.146400 116.249202 -8.512394 0.053510 -28.319910 -9.769362 1.304754 -1.621638 4.154256 -11.875330 13.078114 54.042302 -34.879896 -116.539934 13.905447 2.205488 15.802499 2.851647 -21.118456 -3.881673 -34.571305 73.238392 -38.717708 6.193355 -13.585899 11.639643 -0.004494 -0.033752 -0.006786 -5.919720 -18.846164 5.472720 85.788386 83.071451 85.309260 0.564944 -21.925402 -16.945437 0.028898 0.018924 0.015917
-35.035289 57.913474 12.692503 179.107049 -50.318857 -3.600221 3.035817 22.662869 2.988567 1.556675 12.964634 1.563007 2.011267 16.211000 2.020350 1.555943 12.966661 1.562734 0.820379 16.057144 3.986797 0.103588 -5.917027 7.119735 2.501214 4.685218 0.553134 -3.795998 -14.594444 -9.717445 -52.751554 -36.182229 116.254827 -8.494530 0.093908 -28.339013 -9.775075 1.300686 -1.617833 4.167103 -11.866683 13.070889 54.039964 -34.891420 -116.538159 13.890435 2.228112 15.775625 2.853285 -21.117966 -3.884758 -34.551625 73.240602 -38.695069 6.198234 -13.586518 11.639200 -0.009175 -0.034971 -0.009501 -5.913554 -18.845166 5.475894 85.815191 83.066673 85.336248 0.566605 -21.926706 -16.945740 0.028781 0.018558 0.014935
-35.035650 57.913744 12.692983 179.099485 -50.317432 -3.597334 3.039079 22.663796 2.988515 1.554927 12.971090 1.560537 2.013900 16.206355 2.020684 1.558310 12.966888 1.564104 0.817466 16.058886 3.977621 0.103978 -5.922705 7.103707 2.506377 4.675086 0.544287 -3.793574 -14.588767 -9.711319 -52.735786 -36.201332 116.251423 -8.488433 0.105128 -28.340023 -9.781645 1.293570 -1.614322 4.183178 -11.854845 13.063707 54.019038 -34.896262 -116.519414 13.865042 2.246418 15.739648 2.854758 -21.121436 -3.884444 -34.544489 73.242203 -38.687521 6.204412 -13.586248 11.637717 -0.016057 -0.037118 -0.010169 -5.907094 -18.845098 5.477998 85.784715 83.065759 85.311453 0.566756 -21.924353 -16.951119 0.031610 0.018405 0.016625
-35.036254 57.914002 12.693212 179.096597 -50.316027 -3.597758 3.040040 22.664128 2.987419 1.554771 12.971523 1.560556 2.015160 16.205367 2.021735 1.558460 12.970454 1.560169 0.815046 16.059036 3.970654 0.101830 -5.922470 7.091683 2.513091 4.665582 0.540041 -3.792214 -14.584515 -9.704087 -52.722799 -36.213528 116.247321 -8.481323 0.121476 -28.341702 -9.788178 1.284849 -1.606437 4.196695 -11.843108 13.058026 54.006422 -34.899811 -116.510495 13.838081 2.286315 15.703580 2.853676 -21.124426 -3.882039 -34.544680 73.243277 -38.687277 6.208991 -13.585581 11.634549 -0.007369 -0.039904 -0.007870 -5.904830 -18.844541 5.480799 85.753161 83.058951 85.278167 0.565588 -21.924025 -16.950140 0.029885 0.022519 0.015388
-35.036506 57.914471 12.693091 179.097083 -50.316418 -3.604085 3.042521 22.666274 2.989928 1.555139 12.971738 1.562238 2.013014 16.203653 2.023178 1.554187 12.975845 1.558580 0.815251 16.057115 3.962264 0.104375 -5.918355 7.073018 2.525662 4.654306 0.531753 -3.782071 -14.579363 -9.701843 -52.715250 -36.222010 116.240963 -8.479230 0.116791 -28.346180 -9.787030 1.275311 -1.603240 4.203797 -11.831672 13.054950 54.007460 -34.904580 -116.513485 13.805018 2.377429 15.644176 2.848048 -21.125173 -3.875031 -34.547494 73.244577 -38.690365 6.206767 -13.584905 11.633463 -0.006933 -0.043617 -0.006498 -5.907168 -18.842390 5.487663 85.771407 83.059917 85.294828 0.569362 -21.929391 -16.950356 0.028338 0.025291 0.014944
-35.037470 57.914806 12.692843 179.100629 -50.316459 -3.609637 3.043002 22.667038 2.990720 1.554830 12.971917 1.564313 2.013966 16.207277 2.021799 1.553164 12.972770 1.560166 0.811760 16.062075 3.944794 0.104601 -5.918593 7.042547 2.529010 4.649088 0.528224 -3.745230 -14.579146 -9.707339 -52.723873 -36.226346 116.222172 -8.477451 0.111345 -28.345948 -9.788059 1.272418 -1.601430 4.202798 -11.823935 13.053881 53.995700 -34.911389 -116.505390 13.781591 2.408307 15.599910 2.842162 -21.125652 -3.875396 -34.546232 73.246560 -38.687241 6.209758 -13.585317 11.631394 -0.007939 -0.045719 -0.006959 -5.911077 -18.842303 5.491694 85.789653 83.059813 85.310129 0.569780 -21.930802 -16.949470 0.026375 0.025670 0.015039
-35.039015 57.915023 12.692515 179.103662 -50.316492 -3.612227 3.042204 22.666972 2.990750 1.552419 12.972652 1.560733 2.013686 16.208066 2.022324 1.554813 12.972367 1.561681 0.811038 16.064654 3.933746 0.106934 -5.921136 7.046249 2.532105 4.643629 0.522897 -3.739280 -14.574924 -9.702102 -52.711296 -36.237656 116.209019 -8.458341 0.168393 -28.337477 -9.793561 1.262058 -1.599774 4.208331 -11.811831 13.053339 53.979175 -34.924014 -116.497376 13.763061 2.433276 15.553394 2.838949 -21.126206 -3.879312 -34.542572 73.249159 -38.681381 6.209327 -13.587919 11.629824 -0.006989 -0.044125 -0.006937 -5.912651 -18.842681 5.491988 85.804272 83.059057 85.323548 0.569320 -21.931468 -16.948257 0.026283 0.025234 0.014751
-35.040535 57.915338 12.692017 179.106149 -50.318098 -3.615131 3.043449 22.668216 2.993728 1.550977 12.972349 1.560435 2.015216 16.208538 2.024958 1.553521 12.972686 1.562553 0.807435 16.066132 3.926592 0.108713 -5.916329 7.023509 2.531739 4.636857 0.507623 -3.736847 -14.568527 -9.688815 -52.701413 -36.254281 116.196353 -8.447828 0.185484 -28.331905 -9.823729 1.238719 -1.601926 4.234116 -11.787779 13.053329 53.964588 -34.935204 -116.489087 13.742613 2.460150 15.503863 2.833979 -21.125650 -3.883553 -34.536052 73.251932 -38.673698 6.215553 -13.588372 11.627377 -0.013148 -0.045661 -0.007925 -5.913079 -18.841218 5.492272 85.799663 83.062233 85.319928 0.574748 -21.928262 -16.949194 0.022969 0.023706 0.015223
